<svg width="32" height="33" viewBox="0 0 32 33" fill="none" xmlns="http://www.w3.org/2000/svg">
<g clip-path="url(#clip0_20_39)">
<path d="M12 1.05599C12.1947 1.29346 12.314 1.58373 12.3425 1.88951C12.371 2.19529 12.3075 2.50261 12.16 2.77199C11.0031 4.89469 10.3992 7.27449 10.404 9.69199C10.404 17.734 16.96 24.246 25.04 24.246C26.096 24.2447 27.118 24.138 28.106 23.926C28.4082 23.8613 28.7228 23.8867 29.0108 23.9991C29.2987 24.1114 29.5474 24.3057 29.726 24.558C29.915 24.8205 30.0114 25.1383 30.0002 25.4616C29.989 25.7848 29.8707 26.0952 29.664 26.344C28.0953 28.2708 26.1164 29.8232 23.8716 30.8882C21.6268 31.9531 19.1726 32.5038 16.688 32.5C7.468 32.5 0 25.072 0 15.92C0 9.03199 4.228 3.12399 10.248 0.619989C10.5478 0.492589 10.8809 0.466226 11.1969 0.544885C11.513 0.623544 11.7949 0.802949 12 1.05599ZM9.716 3.12199C7.40135 4.36382 5.46633 6.20948 4.11655 8.46288C2.76676 10.7163 2.05262 13.2933 2.05 15.92C2.05 23.96 8.608 30.472 16.688 30.472C18.6228 30.4749 20.539 30.0943 22.3258 29.3521C24.1127 28.6099 25.7346 27.5209 27.098 26.148C26.4233 26.232 25.7373 26.274 25.04 26.274C15.82 26.274 8.354 18.846 8.354 9.69399C8.354 7.35999 8.838 5.13799 9.716 3.12199Z" fill="#71D9B2"/>
<path d="M21.5881 6.796C21.6168 6.70938 21.672 6.63401 21.746 6.58059C21.82 6.52717 21.9089 6.49842 22.0001 6.49842C22.0913 6.49842 22.1803 6.52717 22.2542 6.58059C22.3282 6.63401 22.3834 6.70938 22.4121 6.796L23.1861 9.12C23.5321 10.156 24.3441 10.968 25.3801 11.314L27.7041 12.088C27.7907 12.1167 27.8661 12.1719 27.9195 12.2459C27.9729 12.3198 28.0017 12.4088 28.0017 12.5C28.0017 12.5912 27.9729 12.6801 27.9195 12.7541C27.8661 12.8281 27.7907 12.8833 27.7041 12.912L25.3801 13.686C24.8689 13.8557 24.4043 14.1424 24.0234 14.5233C23.6425 14.9042 23.3558 15.3687 23.1861 15.88L22.4121 18.204C22.3834 18.2906 22.3282 18.366 22.2542 18.4194C22.1803 18.4728 22.0913 18.5016 22.0001 18.5016C21.9089 18.5016 21.82 18.4728 21.746 18.4194C21.672 18.366 21.6168 18.2906 21.5881 18.204L20.8141 15.88C20.6444 15.3687 20.3577 14.9042 19.9768 14.5233C19.5959 14.1424 19.1314 13.8557 18.6201 13.686L16.2961 12.912C16.2095 12.8833 16.1341 12.8281 16.0807 12.7541C16.0273 12.6801 15.9985 12.5912 15.9985 12.5C15.9985 12.4088 16.0273 12.3198 16.0807 12.2459C16.1341 12.1719 16.2095 12.1167 16.2961 12.088L18.6201 11.314C19.1314 11.1443 19.5959 10.8576 19.9768 10.4767C20.3577 10.0958 20.6444 9.63125 20.8141 9.12L21.5881 6.796ZM27.7261 0.697996C27.7459 0.641049 27.7829 0.591668 27.832 0.556719C27.8811 0.521771 27.9398 0.502991 28.0001 0.502991C28.0604 0.502991 28.1192 0.521771 28.1683 0.556719C28.2174 0.591668 28.2544 0.641049 28.2741 0.697996L28.7901 2.246C29.0201 2.938 29.5621 3.48 30.2541 3.71L31.8021 4.226C31.8591 4.24574 31.9084 4.28274 31.9434 4.33184C31.9783 4.38095 31.9971 4.43972 31.9971 4.5C31.9971 4.56027 31.9783 4.61904 31.9434 4.66815C31.9084 4.71726 31.8591 4.75425 31.8021 4.774L30.2541 5.29C29.9134 5.404 29.6038 5.59557 29.3497 5.84963C29.0957 6.10368 28.9041 6.41327 28.7901 6.754L28.2741 8.302C28.2544 8.35894 28.2174 8.40832 28.1683 8.44327C28.1192 8.47822 28.0604 8.497 28.0001 8.497C27.9398 8.497 27.8811 8.47822 27.832 8.44327C27.7829 8.40832 27.7459 8.35894 27.7261 8.302L27.2101 6.754C27.0961 6.41327 26.9045 6.10368 26.6505 5.84963C26.3964 5.59557 26.0868 5.404 25.7461 5.29L24.1981 4.774C24.1412 4.75425 24.0918 4.71726 24.0568 4.66815C24.0219 4.61904 24.0031 4.56027 24.0031 4.5C24.0031 4.43972 24.0219 4.38095 24.0568 4.33184C24.0918 4.28274 24.1412 4.24574 24.1981 4.226L25.7461 3.71C26.4381 3.48 26.9801 2.938 27.2101 2.246L27.7261 0.697996Z" fill="#71D9B2"/>
</g>
<defs>
<clipPath id="clip0_20_39">
<rect width="32" height="32" fill="white" transform="translate(0 0.5)"/>
</clipPath>
</defs>
</svg>
