<svg width="50" height="51" viewBox="0 0 50 51" fill="none" xmlns="http://www.w3.org/2000/svg">
<g clip-path="url(#clip0_20_33)">
<path fill-rule="evenodd" clip-rule="evenodd" d="M25 0.5C25.442 0.5 25.8659 0.675595 26.1785 0.988155C26.4911 1.30072 26.6667 1.72464 26.6667 2.16667V8.83333C26.6667 9.27536 26.4911 9.69928 26.1785 10.0118C25.8659 10.3244 25.442 10.5 25 10.5C24.558 10.5 24.134 10.3244 23.8215 10.0118C23.5089 9.69928 23.3333 9.27536 23.3333 8.83333V2.16667C23.3333 1.72464 23.5089 1.30072 23.8215 0.988155C24.134 0.675595 24.558 0.5 25 0.5ZM7.32333 7.82333C7.63588 7.51088 8.05973 7.33536 8.50167 7.33536C8.94361 7.33536 9.36745 7.51088 9.68 7.82333L14.3933 12.5333C14.6969 12.8477 14.8649 13.2687 14.8611 13.7057C14.8573 14.1427 14.682 14.5607 14.373 14.8697C14.064 15.1787 13.646 15.354 13.209 15.3578C12.772 15.3616 12.351 15.1936 12.0367 14.89L7.32333 10.18C7.01088 9.86745 6.83536 9.44361 6.83536 9.00167C6.83536 8.55973 7.01088 8.13588 7.32333 7.82333ZM1.66667 23.8333C1.22464 23.8333 0.800716 24.0089 0.488155 24.3215C0.175595 24.634 0 25.058 0 25.5C0 25.942 0.175595 26.3659 0.488155 26.6785C0.800716 26.9911 1.22464 27.1667 1.66667 27.1667H8.33333C8.77536 27.1667 9.19928 26.9911 9.51184 26.6785C9.8244 26.3659 10 25.942 10 25.5C10 25.058 9.8244 24.634 9.51184 24.3215C9.19928 24.0089 8.77536 23.8333 8.33333 23.8333H1.66667ZM7.32333 43.1767C7.01088 42.8641 6.83536 42.4403 6.83536 41.9983C6.83536 41.5564 7.01088 41.1325 7.32333 40.82L12.0367 36.1067C12.1904 35.9475 12.3743 35.8205 12.5777 35.7332C12.781 35.6458 12.9997 35.5998 13.221 35.5979C13.4423 35.596 13.6618 35.6382 13.8666 35.722C14.0714 35.8058 14.2575 35.9295 14.414 36.086C14.5705 36.2425 14.6942 36.4286 14.778 36.6334C14.8618 36.8382 14.904 37.0577 14.9021 37.279C14.9002 37.5003 14.8542 37.719 14.7668 37.9223C14.6795 38.1257 14.5525 38.3096 14.3933 38.4633L9.68 43.1767C9.36745 43.4891 8.94361 43.6646 8.50167 43.6646C8.05973 43.6646 7.63588 43.4891 7.32333 43.1767ZM41.6667 23.8333C41.2246 23.8333 40.8007 24.0089 40.4882 24.3215C40.1756 24.634 40 25.058 40 25.5C40 25.942 40.1756 26.3659 40.4882 26.6785C40.8007 26.9911 41.2246 27.1667 41.6667 27.1667H48.3333C48.7754 27.1667 49.1993 26.9911 49.5118 26.6785C49.8244 26.3659 50 25.942 50 25.5C50 25.058 49.8244 24.634 49.5118 24.3215C49.1993 24.0089 48.7754 23.8333 48.3333 23.8333H41.6667ZM35.6067 14.8933C35.2942 14.5808 35.1187 14.1569 35.1187 13.715C35.1187 13.2731 35.2942 12.8492 35.6067 12.5367L40.32 7.82333C40.4737 7.66415 40.6577 7.53718 40.861 7.44983C41.0643 7.36248 41.283 7.31651 41.5043 7.31458C41.7256 7.31266 41.9451 7.35483 42.1499 7.43863C42.3547 7.52243 42.5408 7.64619 42.6973 7.80268C42.8538 7.95916 42.9776 8.14525 43.0614 8.35008C43.1452 8.5549 43.1873 8.77437 43.1854 8.99567C43.1835 9.21697 43.1375 9.43567 43.0502 9.63901C42.9628 9.84235 42.8358 10.0263 42.6767 10.18L37.9667 14.8933C37.6541 15.2058 37.2303 15.3813 36.7883 15.3813C36.3464 15.3813 35.9192 15.2058 35.6067 14.8933ZM26.6667 42.1667C26.6667 41.7246 26.4911 41.3007 26.1785 40.9882C25.8659 40.6756 25.442 40.5 25 40.5C24.558 40.5 24.134 40.6756 23.8215 40.9882C23.5089 41.3007 23.3333 41.7246 23.3333 42.1667V48.8333C23.3333 49.2754 23.5089 49.6993 23.8215 50.0118C24.134 50.3244 24.558 50.5 25 50.5C25.442 50.5 25.8659 50.3244 26.1785 50.0118C26.4911 49.6993 26.6667 49.2754 26.6667 48.8333V42.1667ZM35.6067 36.1067C35.9192 35.7942 36.3431 35.6187 36.785 35.6187C37.2269 35.6187 37.6508 35.7942 37.9633 36.1067L42.6767 40.82C42.8358 40.9737 42.9628 41.1577 43.0502 41.361C43.1375 41.5643 43.1835 41.783 43.1854 42.0043C43.1873 42.2256 43.1452 42.4451 43.0614 42.6499C42.9776 42.8547 42.8538 43.0408 42.6973 43.1973C42.5408 43.3538 42.3547 43.4776 42.1499 43.5614C41.9451 43.6452 41.7256 43.6873 41.5043 43.6854C41.283 43.6835 41.0643 43.6375 40.861 43.5502C40.6577 43.4628 40.4737 43.3358 40.32 43.1767L35.6067 38.4633C35.2942 38.1508 35.1187 37.7269 35.1187 37.285C35.1187 36.8431 35.2942 36.4192 35.6067 36.1067ZM18.3333 25.5C18.3333 23.7319 19.0357 22.0362 20.286 20.786C21.5362 19.5357 23.2319 18.8333 25 18.8333C26.7681 18.8333 28.4638 19.5357 29.714 20.786C30.9643 22.0362 31.6667 23.7319 31.6667 25.5C31.6667 27.2681 30.9643 28.9638 29.714 30.214C28.4638 31.4643 26.7681 32.1667 25 32.1667C23.2319 32.1667 21.5362 31.4643 20.286 30.214C19.0357 28.9638 18.3333 27.2681 18.3333 25.5ZM25 15.5C22.3478 15.5 19.8043 16.5536 17.9289 18.4289C16.0536 20.3043 15 22.8478 15 25.5C15 28.1522 16.0536 30.6957 17.9289 32.5711C19.8043 34.4464 22.3478 35.5 25 35.5C27.6522 35.5 30.1957 34.4464 32.0711 32.5711C33.9464 30.6957 35 28.1522 35 25.5C35 22.8478 33.9464 20.3043 32.0711 18.4289C30.1957 16.5536 27.6522 15.5 25 15.5Z" fill="#71D9B2"/>
</g>
<defs>
<clipPath id="clip0_20_33">
<rect width="50" height="50" fill="white" transform="translate(0 0.5)"/>
</clipPath>
</defs>
</svg>
