<svg width="40" height="40" viewBox="0 0 40 40" fill="none" xmlns="http://www.w3.org/2000/svg">
<g clip-path="url(#clip0_12_219)">
<path d="M0 2.86531C0 1.28375 1.32406 0 2.95625 0H37.0438C38.6766 0 40 1.28375 40 2.86531V37.1352C40 38.7172 38.6766 40 37.0438 40H2.95625C1.32422 40 0 38.7173 0 37.1356V2.86484V2.86531Z" fill="#006699"/>
<path d="M12.1556 33.4747V15.4666H6.16995V33.4747H12.1562H12.1556ZM9.16401 13.0083C11.2509 13.0083 12.5501 11.6255 12.5501 9.89736C12.511 8.12986 11.2509 6.78564 9.2037 6.78564C7.15511 6.78564 5.81714 8.12986 5.81714 9.89721C5.81714 11.6253 7.11589 13.0081 9.12479 13.0081H9.16354L9.16401 13.0083ZM15.4687 33.4747H21.4539V23.4192C21.4539 22.8817 21.4929 22.3428 21.651 21.9589C22.0835 20.8831 23.0684 19.7696 24.7223 19.7696C26.8876 19.7696 27.7543 21.4208 27.7543 23.8419V33.4747H33.7393V23.1494C33.7393 17.6183 30.7868 15.0444 26.8489 15.0444C23.6203 15.0444 22.2023 16.8489 21.4145 18.078H21.4543V15.4672H15.469C15.5471 17.1566 15.4685 33.4753 15.4685 33.4753L15.4687 33.4747Z" fill="#F3FFF9"/>
</g>
<defs>
<clipPath id="clip0_12_219">
<rect width="40" height="40" fill="white"/>
</clipPath>
</defs>
</svg>
