<svg width="40" height="40" viewBox="0 0 40 40" fill="none" xmlns="http://www.w3.org/2000/svg">
<g clip-path="url(#clip0_12_223)">
<path fill-rule="evenodd" clip-rule="evenodd" d="M4 0H36C38.2093 0 40 1.79072 40 4V36C40 38.2093 38.2093 40 36 40H4C1.79072 40 0 38.2093 0 36V4C0 1.79072 1.79072 0 4 0Z" fill="#010101"/>
<path fill-rule="evenodd" clip-rule="evenodd" d="M25.1168 36.8C26.3339 36.8 27.3206 35.8213 27.3206 34.6141C27.3206 33.4069 26.3339 32.428 25.1168 32.428H24.7848C26.0019 32.428 26.9886 33.4069 26.9886 34.6141C26.9886 35.8213 26.0019 36.8 24.7848 36.8H25.1168Z" fill="#EE1D51"/>
<path fill-rule="evenodd" clip-rule="evenodd" d="M24.7547 32.428H24.4227C23.2056 32.428 22.2188 33.4069 22.2188 34.6141C22.2188 35.8213 23.2056 36.8 24.4227 36.8H24.7547C23.5375 36.8 22.5507 35.8213 22.5507 34.6141C22.5507 33.4069 23.5375 32.428 24.7547 32.428Z" fill="#66C8CF"/>
<path d="M24.7697 35.6768C25.3617 35.6768 25.8416 35.2009 25.8416 34.6139C25.8416 34.0269 25.3617 33.551 24.7697 33.551C24.1778 33.551 23.6979 34.0269 23.6979 34.6139C23.6979 35.2009 24.1778 35.6768 24.7697 35.6768Z" fill="#010101"/>
<path fill-rule="evenodd" clip-rule="evenodd" d="M8 31.4399V32.5479H9.29792V36.77H10.5963V32.5779H11.6528L12.015 31.4399H8ZM18.6264 31.4399V32.5479H19.9243V36.77H21.2227V32.5779H22.2792L22.6414 31.4399H18.6264ZM12.2568 32.0687C12.2568 31.7215 12.5402 31.4399 12.8902 31.4399C13.2406 31.4399 13.5243 31.7215 13.5243 32.0687C13.5243 32.4159 13.2408 32.6975 12.8902 32.6975C12.5402 32.6974 12.2568 32.4159 12.2568 32.0687ZM12.2568 33.1468H13.5243V36.77H12.2568V33.1468ZM14.0678 31.4399V36.77H15.3358V35.3927L15.7283 35.0331L16.9659 36.7999H18.3243L16.543 34.2247L18.143 32.6675H16.6035L15.3358 33.9251V31.4399H14.0678ZM27.743 31.4399V36.77H29.0112V35.3927L29.4035 35.0331L30.6414 36.7999H32L30.2187 34.2247L31.8187 32.6675H30.2792L29.0112 33.9251V31.4399H27.743Z" fill="#F3FFF9"/>
<path fill-rule="evenodd" clip-rule="evenodd" d="M25.7867 12.9896C27.5378 14.2407 29.683 14.9768 31.9998 14.9768V10.5207C31.5613 10.5208 31.124 10.4751 30.695 10.3842V13.8919C28.3784 13.8919 26.2334 13.1557 24.4819 11.9047V20.9983C24.4819 25.5474 20.7923 29.2349 16.2411 29.2349C14.543 29.2349 12.9646 28.7218 11.6534 27.8418C13.1499 29.3711 15.2368 30.3199 17.5456 30.3199C22.0971 30.3199 25.7869 26.6324 25.7869 22.0831L25.7867 12.9896ZM27.3963 8.49395C26.5014 7.51683 25.9139 6.25395 25.7867 4.85779V4.28467H24.5502C24.8614 6.05907 25.923 7.57507 27.3963 8.49395ZM14.532 24.3511C14.0321 23.6959 13.7618 22.8943 13.763 22.0701C13.763 19.9895 15.4507 18.3026 17.5328 18.3026C17.9208 18.3023 18.3065 18.3618 18.6763 18.4791V13.9234C18.2442 13.8642 17.8081 13.8391 17.372 13.8483V17.3943C17.002 17.277 16.6161 17.2175 16.228 17.2178C14.1459 17.2178 12.4584 18.9047 12.4584 20.9855C12.4584 22.4567 13.3019 23.7306 14.532 24.3511Z" fill="#EE1D52"/>
<path fill-rule="evenodd" clip-rule="evenodd" d="M24.482 11.9047C26.2335 13.1557 28.3784 13.8919 30.6951 13.8919V10.3842C29.402 10.109 28.2572 9.43347 27.3964 8.49395C25.9231 7.57507 24.8615 6.05907 24.5503 4.28467H21.3024V22.0829C21.2951 24.1578 19.6103 25.8378 17.5327 25.8378C16.3084 25.8378 15.2207 25.2546 14.5319 24.3511C13.3018 23.7306 12.4583 22.4567 12.4583 20.9855C12.4583 18.9047 14.1458 17.2178 16.2279 17.2178C16.6268 17.2178 17.0112 17.2799 17.3719 17.3943V13.8483C12.9007 13.9407 9.30469 17.5922 9.30469 22.0831C9.30469 24.3248 10.2002 26.3571 11.6535 27.8419C12.9647 28.722 14.5431 29.2351 16.2412 29.2351C20.7924 29.2351 24.482 25.5474 24.482 20.9984V11.9047Z" fill="#F3FFF9"/>
<path fill-rule="evenodd" clip-rule="evenodd" d="M30.695 10.3843V9.43579C29.5289 9.43755 28.3857 9.11114 27.3963 8.49387C28.2721 9.45224 29.4254 10.1131 30.695 10.3843ZM24.5502 4.28475C24.5205 4.11519 24.4977 3.94449 24.4819 3.77307V3.19995H19.9974V20.9984C19.9902 23.0731 18.3056 24.7531 16.2278 24.7531C15.6178 24.7531 15.0419 24.6084 14.5318 24.3512C15.2206 25.2547 16.3083 25.8379 17.5326 25.8379C19.6101 25.8379 21.295 24.1579 21.3024 22.083V4.28475H24.5502ZM17.372 13.8484V12.8387C16.9973 12.7874 16.6195 12.7618 16.2413 12.762C11.6896 12.762 8 16.4497 8 20.9984C8 23.8502 9.45008 26.3635 11.6536 27.8419C10.2003 26.3571 9.3048 24.3248 9.3048 22.083C9.3048 17.5923 12.9006 13.9408 17.372 13.8484Z" fill="#69C9D0"/>
<path fill-rule="evenodd" clip-rule="evenodd" d="M24.7847 36.8C26.0018 36.8 26.9887 35.8213 26.9887 34.6141C26.9887 33.4069 26.0018 32.428 24.7847 32.428H24.7546C23.5375 32.428 22.5508 33.4069 22.5508 34.6141C22.5508 35.8213 23.5375 36.8 24.7546 36.8H24.7847ZM23.698 34.6141C23.698 34.0269 24.178 33.5512 24.77 33.5512C25.3615 33.5512 25.8415 34.0269 25.8415 34.6141C25.8415 35.2013 25.3615 35.6773 24.77 35.6773C24.178 35.6771 23.698 35.2013 23.698 34.6141Z" fill="#F3FFF9"/>
</g>
<defs>
<clipPath id="clip0_12_223">
<rect width="40" height="40" fill="white"/>
</clipPath>
</defs>
</svg>
