<svg width="40" height="40" viewBox="0 0 40 40" fill="none" xmlns="http://www.w3.org/2000/svg">
<path d="M37.9045 10.9475C37.4745 9.32947 36.2085 8.05507 34.6005 7.62267C31.6865 6.83667 20.0001 6.83667 20.0001 6.83667C20.0001 6.83667 8.31365 6.83667 5.39965 7.62267C3.79165 8.05507 2.52525 9.32947 2.09565 10.9475C1.31445 13.8807 1.31445 19.9999 1.31445 19.9999C1.31445 19.9999 1.31445 26.1191 2.09525 29.0523C2.52485 30.6703 3.79125 31.9447 5.39925 32.3771C8.31365 33.1631 20.0001 33.1631 20.0001 33.1631C20.0001 33.1631 31.6865 33.1631 34.6009 32.3771C36.2089 31.9443 37.4749 30.6703 37.9049 29.0523C38.6857 26.1191 38.6856 19.9999 38.6856 19.9999C38.6856 19.9999 38.6857 13.8807 37.9045 10.9475Z" fill="#FF0000"/>
<path d="M16.1136 14.3506V25.649L26.0456 20.0002L16.1136 14.3506Z" fill="#F1F1F1"/>
</svg>
